<?xml version="1.0" standalone="no"?>
<!DOCTYPE svg PUBLIC "-//W3C//DTD SVG 20010904//EN"
 "http://www.w3.org/TR/2001/REC-SVG-20010904/DTD/svg10.dtd">
<svg version="1.0" xmlns="http://www.w3.org/2000/svg"
 width="1286.000000pt" height="1286.000000pt" viewBox="0 0 1286.000000 1286.000000"
 preserveAspectRatio="xMidYMid meet">
<metadata>
Created by potrace 1.11, written by Peter Selinger 2001-2013
</metadata>
<g transform="translate(0.000000,1286.000000) scale(0.100000,-0.100000)"
fill="#000000" stroke="none">
<path d="M5407 10454 c-1 -1 -42 -4 -92 -8 -196 -13 -389 -80 -524 -182 -179
-136 -331 -362 -366 -545 -5 -26 -12 -60 -21 -99 -12 -54 -10 -252 3 -336 67
-421 378 -735 798 -807 102 -18 337 -18 437 -1 321 56 576 248 718 542 130
270 121 663 -23 922 -147 266 -395 442 -697 496 -34 5 -229 21 -233 18z"/>
<path d="M777 9144 c-1 -1 -58 -5 -127 -8 -69 -3 -134 -8 -145 -10 -11 -2 -42
-7 -68 -10 -140 -19 -398 -74 -407 -87 -7 -11 -4 -4903 4 -4974 20 -192 21
-203 41 -305 8 -41 17 -91 20 -110 9 -55 83 -266 123 -349 190 -402 574 -682
1107 -807 17 -4 35 -8 40 -10 82 -20 324 -52 460 -60 89 -5 434 -4 480 1 22 2
69 7 105 10 36 3 81 7 100 10 19 3 52 7 72 10 204 27 428 110 553 204 223 169
346 416 347 701 1 118 -15 230 -41 295 -44 111 -155 301 -194 333 -10 8 -27 7
-68 -4 -333 -92 -721 -105 -952 -32 -70 22 -163 72 -206 111 -43 39 -90 124
-110 198 -20 70 -21 102 -21 959 l0 887 517 0 c285 0 548 3 586 7 131 13 245
62 339 145 140 124 198 309 193 611 -4 212 -49 388 -154 612 l-32 66 -720 0
c-396 0 -722 2 -724 3 -2 2 -5 202 -8 444 -5 420 -7 464 -21 545 -25 154 -92
297 -178 382 -68 68 -193 133 -329 172 -95 27 -148 37 -289 52 -54 6 -288 12
-293 8z"/>
<path d="M10097 8124 c-1 -1 -63 -4 -137 -8 -74 -4 -151 -8 -170 -10 -19 -2
-65 -7 -102 -11 -37 -3 -75 -8 -86 -10 -10 -2 -43 -6 -73 -10 -231 -28 -648
-137 -874 -227 -585 -234 -948 -526 -1048 -843 -43 -135 -42 -97 -42 -1975 0
-987 4 -1824 9 -1860 33 -258 146 -452 322 -556 111 -65 264 -104 479 -120
154 -11 446 -8 565 7 36 4 90 10 120 13 30 4 80 11 110 16 30 5 72 12 92 14
20 3 54 9 75 15 21 6 51 12 67 15 16 3 31 8 35 11 3 4 6 870 7 1926 0 1055 2
1920 5 1922 25 21 138 82 189 103 197 80 355 108 605 108 162 0 201 -4 266
-21 225 -63 349 -172 430 -378 30 -76 32 -166 34 -1560 1 -775 5 -1444 9
-1485 35 -345 197 -566 481 -653 28 -8 62 -18 76 -21 42 -9 169 -26 244 -32
65 -6 471 -5 510 1 17 2 57 7 90 10 111 11 140 14 165 19 14 3 43 8 65 11 22
2 86 14 143 26 l103 22 -4 1866 c-4 1842 -4 1867 -25 1981 -50 275 -116 468
-224 654 -264 454 -727 775 -1344 930 -111 28 -363 72 -469 81 -38 4 -81 8
-94 10 -63 11 -594 27 -604 19z"/>
<path d="M5139 7976 c-2 -2 -40 -6 -84 -10 -127 -10 -190 -18 -350 -46 -96
-17 -139 -24 -205 -35 -13 -2 -15 -268 -15 -2331 0 -1281 4 -2356 8 -2389 10
-76 23 -131 43 -192 18 -55 73 -166 86 -171 4 -2 8 -8 8 -13 0 -20 94 -114
156 -156 95 -65 243 -112 403 -128 36 -3 68 -8 73 -11 12 -7 422 -7 498 0 36
4 97 11 135 16 39 5 88 12 110 14 22 2 51 7 65 10 14 3 43 8 65 11 22 3 47 7
55 10 8 2 32 6 53 9 79 12 112 18 117 21 8 5 4 4644 -4 4695 -4 25 -9 63 -12
84 -3 22 -16 74 -30 115 -69 218 -218 370 -427 436 -70 22 -111 31 -252 51
-43 6 -491 15 -496 10z"/>
</g>
</svg>
